<svg xmlns="http://www.w3.org/2000/svg" viewBox="0 0 24 24" fill="#000"><path d="m12 7-5 5 5 5 5-5L12 7z" fill="#EF4444"></path><path d="M20 13c1.32 0 1.32-2 0-2h0s-3.62-.03-5.29-1.71-1.71-5.26-1.71-5.29h0c0-1.32-2-1.32-2 0h0s-.03 3.62-1.71 5.29c-1.68 1.68-5.26 1.71-5.29 1.71h0c-1.32 0-1.32 2 0 2h0s3.62.03 5.29 1.71c1.68 1.68 1.71 5.26 1.71 5.29h0c0 1.32 2 1.32 2 0h0s.03-3.62 1.71-5.29 5.26-1.71 5.29-1.71h0ZM12 15.22c-.7-1.55-1.67-2.52-3.22-3.22 1.55-.7 2.52-1.67 3.22-3.22.7 1.55 1.67 2.52 3.22 3.22-1.55.7-2.52 1.67-3.22 3.22ZM4 6v1c0 1.32 2 1.32 2 0v-1h1c1.32 0 1.32-2 0-2h-1v-1c0-1.32-2-1.32-2 0v1h-1c-1.32 0-1.32 2 0 2h1ZM21 18h-1v-1c0-1.32-2-1.32-2 0v1h-1c-1.32 0-1.32 2 0 2h1v1c0 1.32 2 1.32 2 0v-1h1c1.32 0 1.32-2 0-2Z"></path></svg>