<svg xmlns="http://www.w3.org/2000/svg" viewBox="0 0 24 24" fill="#450A0A"><path d="M18.5 3H16c0-.55-.45-1-1-1s-1 .45-1 1h-4c0-.55-.45-1-1-1s-1 .45-1 1H5.5A2.5 2.5 0 0 0 3 5.5v13A2.5 2.5 0 0 0 5.5 21h13a2.5 2.5 0 0 0 2.5-2.5v-13A2.5 2.5 0 0 0 18.5 3Zm.5 15.5a.5.5 0 0 1-.5.5h-13a.5.5 0 0 1-.5-.5V10h14v8.5ZM19 8H5V5.5c0-.28.22-.5.5-.5H8c0 .55.45 1 1 1s1-.45 1-1h4c0 .55.45 1 1 1s1-.45 1-1h2.5c.28 0 .5.22.5.5V8ZM7 17a1 1 0 0 0 1 1h2c.55 0 1-.45 1-1s-.45-1-1-1v-4a1 1 0 0 0-1.71-.7l-1 1A1 1 0 0 0 8 14v2a1 1 0 0 0-1 1ZM13 17a1 1 0 0 0 1 1h2c.55 0 1-.45 1-1s-.45-1-1-1v-4a1 1 0 0 0-.62-.92 1 1 0 0 0-1.09.22l-1 1A1 1 0 0 0 14 14v2a1 1 0 0 0-1 1Z"></path></svg>