<svg xmlns="http://www.w3.org/2000/svg" viewBox="0 0 24 24" fill="#000"><path d="m8 2 2 6-2 3 5 5 3-2 6.25 2.33L19 21l-9-2-5-5-2-9 5-3z" fill="#EF4444"></path><path d="m21.38 14.31-3.47-1.49c-.32-.14-.66-.2-1-.2-.82 0-1.61.4-2.08 1.11L14 15s-1.7-.3-3.2-1.8-1.8-3.2-1.8-3.2l1.27-.85c1-.67 1.39-1.96.91-3.07L9.68 2.61a2.491 2.491 0 0 0-2.3-1.51c-.46 0-.93.13-1.36.4L3.57 3.1c-.6.39-1.05 1-1.25 1.67-.87 3.07.39 8.53 4.38 12.52 3.2 3.2 7.35 4.64 10.44 4.64.77 0 1.47-.09 2.08-.26.69-.2 1.28-.65 1.67-1.25l1.6-2.45c.84-1.3.32-3.05-1.11-3.66Zm-.57 2.57-1.6 2.45c-.14.21-.32.35-.53.41-.43.12-.96.19-1.54.19-2.29 0-6.03-1.06-9.03-4.06-3.69-3.69-4.48-8.4-3.87-10.57.06-.21.21-.4.41-.53l2.45-1.6a.503.503 0 0 1 .73.22l1.49 3.47c.1.22.02.48-.18.61l-1.27.85c-.66.44-1 1.23-.86 2 .04.24.46 2.38 2.36 4.27 1.89 1.89 4.03 2.31 4.27 2.36a2 2 0 0 0 2-.86l.85-1.27c.09-.14.25-.22.42-.22.07 0 .13 0 .2.04l3.47 1.49c.18.08.25.21.28.31s.05.26-.06.42Z"></path></svg>