<svg xmlns="http://www.w3.org/2000/svg" viewBox="188.542 189.84 122.916 120.319" fill="#450A0A">
  <path d="M 294.386 196.173 L 277.315 196.173 C 277.315 192.69 274.242 189.84 270.486 189.84 C 266.73 189.84 263.657 192.69 263.657 196.173 L 236.343 196.173 C 236.343 192.69 233.27 189.84 229.514 189.84 C 225.758 189.84 222.685 192.69 222.685 196.173 L 205.614 196.173 C 196.19 196.173 188.542 203.259 188.542 212.004 L 188.542 294.327 C 188.542 303.073 196.19 310.159 205.614 310.159 L 294.386 310.159 C 303.817 310.159 311.458 303.073 311.458 294.327 L 311.458 212.004 C 311.458 203.259 303.817 196.173 294.386 196.173 Z M 297.801 294.327 C 297.801 296.075 296.278 297.494 294.386 297.494 L 205.614 297.494 C 203.729 297.494 202.199 296.075 202.199 294.327 L 202.199 240.501 L 297.801 240.501 L 297.801 294.327 Z M 297.801 227.835 L 202.199 227.835 L 202.199 212.004 C 202.199 210.231 203.702 208.838 205.614 208.838 L 222.685 208.838 C 222.685 212.321 225.758 215.17 229.514 215.17 C 233.27 215.17 236.343 212.321 236.343 208.838 L 263.657 208.838 C 263.657 212.321 266.73 215.17 270.486 215.17 C 274.242 215.17 277.315 212.321 277.315 208.838 L 294.386 208.838 C 296.298 208.838 297.801 210.231 297.801 212.004 L 297.801 227.835 Z M 237.394 284.326 C 237.394 287.821 240.453 290.658 244.222 290.658 L 257.88 290.658 C 261.636 290.658 264.708 287.809 264.708 284.326 C 264.708 280.843 261.636 277.993 257.88 277.993 L 257.88 252.663 C 257.866 250.104 256.2 247.806 253.646 246.837 C 251.092 245.862 248.156 246.412 246.203 248.23 L 239.374 254.563 C 235.7 258.045 237.462 263.916 242.549 265.125 C 243.096 265.258 243.662 265.328 244.222 265.328 L 244.222 277.993 C 240.453 277.993 237.394 280.83 237.394 284.326"/>
</svg>
